<svg xmlns="http://www.w3.org/2000/svg" xmlns:xlink="http://www.w3.org/1999/xlink" viewBox="0 0 541.66 214.4"><defs><linearGradient id="Dégradé_sans_nom_23" y1="142.7" x2="143.68" y2="142.7" gradientUnits="userSpaceOnUse"><stop offset="0" stop-color="#0857c3"/><stop offset="1" stop-color="#656bff"/></linearGradient><linearGradient id="Dégradé_sans_nom_6" x1="401.53" y1="153.75" x2="440.15" y2="187.28" xlink:href="#Dégradé_sans_nom_23"/><style>.cls-3{fill:none}</style></defs><g id="Original"><path d="M131.55 51.49l40.84 50.15h11.32V27.58h-13.65v50.15l-40.84-50.15H117.9v74.06h13.65V51.49zM224.69 27.81v50q0 13.44-11.36 13.45-8.45 0-14.48-8.34l-7.71 9.27a25 25 0 009.64 7.76 29.91 29.91 0 0012.87 2.76q12.07 0 18.33-6.41t6.25-19.21l.68-49.48M316.74 93.41V64.35h-12.82v22.71a29.33 29.33 0 01-15 3.75 27.44 27.44 0 01-13.6-3.34 24.2 24.2 0 01-9.32-9.16 25.66 25.66 0 01-3.39-13.13A26 26 0 01266 51.85a23.57 23.57 0 019.37-9.07A28.48 28.48 0 01289 39.55a27.4 27.4 0 0120.1 8.34l8.54-8.34a32.61 32.61 0 00-12.6-8.85 44.33 44.33 0 00-16.67-3 42.07 42.07 0 00-20.26 4.84A35.91 35.91 0 00254 45.91a36.86 36.86 0 00-5.1 19.27 36.86 36.86 0 005.1 19.27 36 36 0 0014.06 13.39 41.62 41.62 0 0020.11 4.84 50.28 50.28 0 0015.42-2.39 40.75 40.75 0 0013.15-6.88z"/><path d="M177.9 117.72a62.83 62.83 0 11-.27-103.84" stroke="#000" stroke-miterlimit="10" stroke-width="6.13" fill="none"/><path d="M64.66 71a71.88 71.88 0 1079 74.14 80.5 80.5 0 01-79-74.14z" fill="url(#Dégradé_sans_nom_23)"/><path class="cls-3" d="M422 151.92a17.16 17.16 0 00-12.24 4.65 18.27 18.27 0 00-5.62 12.15H440a18.31 18.31 0 00-5.62-12.15 17.31 17.31 0 00-12.38-4.65zM242.36 154.46a20.23 20.23 0 00-19.3 0 17.33 17.33 0 00-6.72 7 22.75 22.75 0 000 20.54 17.36 17.36 0 006.72 7 20.23 20.23 0 0019.3 0 17.05 17.05 0 006.67-7 23.17 23.17 0 000-20.54 17 17 0 00-6.67-7z"/><path d="M153.8 171.69a26.42 26.42 0 003.35 13.3 23.62 23.62 0 009.27 9.17 27.18 27.18 0 0013.39 3.26 26.09 26.09 0 0011.62-2.54 19.37 19.37 0 008.16-7.44L194.5 184a15.59 15.59 0 01-6.33 5.57 19.19 19.19 0 01-8.36 1.83 19.82 19.82 0 01-9.84-2.45 17.35 17.35 0 01-6.81-6.91 22.88 22.88 0 010-20.6 17.16 17.16 0 016.81-7 19.82 19.82 0 019.84-2.45 18.94 18.94 0 018.36 1.87 16 16 0 016.33 5.62l5.09-3.46a19.48 19.48 0 00-8.11-7.44 26 26 0 00-11.67-2.54 27.28 27.28 0 00-13.39 3.26 23.79 23.79 0 00-9.27 9.13 26.11 26.11 0 00-3.35 13.24M245.86 149.32a28.15 28.15 0 00-26.3 0 23.79 23.79 0 00-9.22 9.13 27.79 27.79 0 000 26.49 24.1 24.1 0 009.22 9.17 27.78 27.78 0 0026.3 0 23.7 23.7 0 009.17-9.17 28.16 28.16 0 000-26.49 23.4 23.4 0 00-9.17-9.13zM249 182a17.05 17.05 0 01-6.67 7 20.23 20.23 0 01-19.3 0 17.36 17.36 0 01-6.72-7 22.75 22.75 0 010-20.54 17.33 17.33 0 016.72-7 20.23 20.23 0 0119.3 0 17 17 0 016.67 7 23.17 23.17 0 010 20.54zM298 146.06a24.83 24.83 0 00-11.48 2.54 19.09 19.09 0 00-7.73 7.16v-9.32h-6.52v50.5h6.81v-26.5q0-8.53 4.75-13.39t12.92-4.84q7.29 0 11.23 4.12t3.94 12v28.6h6.81v-29.27q0-10.56-5.61-16.08T298 146.06zM363 146.06a24.79 24.79 0 00-11.47 2.54 19 19 0 00-7.73 7.16v-9.32h-6.53v50.5h6.82v-26.5q0-8.53 4.75-13.39t12.91-4.84q7.29 0 11.23 4.12t3.94 12v28.6h6.82v-29.27q0-10.56-5.62-16.08T363 146.06z"/><path d="M434.61 149.32a24.43 24.43 0 00-12.61-3.26 24.71 24.71 0 00-12.63 3.26 23.3 23.3 0 00-8.83 9.13 27 27 0 00-3.22 13.24 26.13 26.13 0 003.36 13.25 23.86 23.86 0 009.36 9.17 28 28 0 0013.78 3.31 28.39 28.39 0 0011.18-2.11 21.71 21.71 0 008.4-6.14l-3.84-4.42a18.66 18.66 0 01-6.82 4.94 21.76 21.76 0 01-8.64 1.69q-8.35 0-13.82-4.85a18.06 18.06 0 01-6.05-12.72h42.24l.1-2.12a27.32 27.32 0 00-3.17-13.29 23.21 23.21 0 00-8.79-9.08zm-30.43 19.4a18.27 18.27 0 015.62-12.15 18.55 18.55 0 0124.57 0 18.31 18.31 0 015.63 12.15z" fill="url(#Dégradé_sans_nom_6)"/><path d="M471.53 154.46a19.78 19.78 0 019.83-2.45 18.94 18.94 0 018.36 1.87 16 16 0 016.33 5.62l5.09-3.46a19.36 19.36 0 00-8.14-7.44 26 26 0 00-11.67-2.54 27.28 27.28 0 00-13.33 3.26 23.76 23.76 0 00-9.26 9.13 26.12 26.12 0 00-3.36 13.24 26.42 26.42 0 003.36 13.3 23.6 23.6 0 009.26 9.17 27.18 27.18 0 0013.39 3.26 26.09 26.09 0 0011.61-2.54 19.31 19.31 0 008.16-7.44l-5.11-3.44a15.52 15.52 0 01-6.33 5.57 19.19 19.19 0 01-8.36 1.83 19.78 19.78 0 01-9.83-2.45 17.31 17.31 0 01-6.82-6.91 22.88 22.88 0 010-20.6 17.12 17.12 0 016.82-6.98zM539.25 189a9.81 9.81 0 01-3.41 1.92 12.46 12.46 0 01-4.07.68 8.58 8.58 0 01-6.48-2.35q-2.26-2.35-2.26-6.87v-30.17h15.36v-5.77H523v-11h-6.82v11h-9v5.77h9v30.53q0 7 3.84 10.84t11 3.84a19.1 19.1 0 005.9-.91 12.92 12.92 0 004.76-2.64z"/><circle cx="177.44" cy="121.28" r="9.5"/></g></svg>